<svg width="48" height="32" viewBox="0 0 48 32" fill="none" xmlns="http://www.w3.org/2000/svg">
  <rect width="48" height="32" rx="4" fill="#000000"/>
  <path d="M18 11C18 9.89543 18.8954 9 20 9H21C21.5523 9 22 9.44772 22 10C22 10.5523 21.5523 11 21 11H20V13H21C21.5523 13 22 13.4477 22 14C22 14.5523 21.5523 15 21 15H20C18.8954 15 18 14.1046 18 13V11Z" fill="white"/>
  <path d="M24 15C23.4477 15 23 14.5523 23 14V10C23 9.44772 23.4477 9 24 9H26C27.1046 9 28 9.89543 28 11V13C28 14.1046 27.1046 15 26 15H24ZM25 11V13H26V11H25Z" fill="white"/>
  <path d="M18 18C18 17.4477 18.4477 17 19 17H20C21.1046 17 22 17.8954 22 19C22 20.1046 21.1046 21 20 21V22C20 22.5523 19.5523 23 19 23C18.4477 23 18 22.5523 18 22V18ZM20 19V20H20V19Z" fill="white"/>
  <path d="M24 21L26 17H27C27.5523 17 28 17.4477 28 18V22C28 22.5523 27.5523 23 27 23C26.4477 23 26 22.5523 26 22V21L24 23C23.4477 23 23 22.5523 23 22V18C23 17.4477 23.4477 17 24 17C24.5523 17 25 17.4477 25 18V21Z" fill="white"/>
</svg>
